# Blender v2.79 (sub 0) OBJ File: ''
# www.blender.org
mtllib roof.mtl
o Cylinder.001
v 0.000000 0.000000 -1.000000
v 0.000000 0.000000 -1.000000
v 0.012573 0.000000 0.999921
v 0.000007 0.000000 1.000000
v -0.012559 0.000000 0.999921
v -0.025123 0.000000 0.999684
v -0.037683 0.000000 0.999290
v -0.050237 0.000000 0.998737
v -0.062783 0.000000 0.998027
v -0.075320 0.000000 0.997159
v -0.087844 0.000000 0.996134
v -0.100355 0.000000 0.994952
v -0.112849 0.000000 0.993612
v -0.125326 0.000000 0.992116
v -0.137783 0.000000 0.990462
v -0.150218 0.000000 0.988653
v -0.162630 0.000000 0.986687
v -0.175016 0.000000 0.984566
v -0.187374 0.000000 0.982289
v -0.199703 0.000000 0.979857
v -0.212000 0.000000 0.977270
v -0.224263 0.000000 0.974529
v -0.236492 0.000000 0.971634
v -0.248682 0.000000 0.968585
v -0.260834 0.000000 0.965384
v -0.272944 0.000000 0.962030
v -0.285012 0.000000 0.958524
v -0.297034 0.000000 0.954867
v -0.309009 0.000000 0.951059
v -0.320936 0.000000 0.947101
v -0.332812 0.000000 0.942993
v -0.344635 0.000000 0.938737
v -0.356404 0.000000 0.934332
v -0.368117 0.000000 0.929779
v -0.379772 0.000000 0.925080
v -0.391366 0.000000 0.920235
v -0.402899 0.000000 0.915244
v -0.414368 0.000000 0.910109
v -0.425772 0.000000 0.904831
v -0.437108 0.000000 0.899409
v -0.448376 0.000000 0.893845
v -0.459572 0.000000 0.888140
v -0.470696 0.000000 0.882295
v -0.481746 0.000000 0.876311
v -0.492720 0.000000 0.870188
v -0.503616 0.000000 0.863928
v -0.514432 0.000000 0.857531
v -0.525167 0.000000 0.850999
v -0.535819 0.000000 0.844333
v -0.546387 0.000000 0.837533
v -0.556868 0.000000 0.830601
v -0.567262 0.000000 0.823538
v -0.577565 0.000000 0.816344
v -0.587778 0.000000 0.809022
v -0.597898 0.000000 0.801572
v -0.607923 0.000000 0.793996
v -0.617852 0.000000 0.786294
v -0.627684 0.000000 0.778468
v -0.637417 0.000000 0.770519
v -0.647049 0.000000 0.762448
v -0.656579 0.000000 0.754257
v -0.666005 0.000000 0.745947
v -0.675326 0.000000 0.737519
v -0.684540 0.000000 0.728975
v -0.693646 0.000000 0.720316
v -0.702643 0.000000 0.711542
v -0.711529 0.000000 0.702657
v -0.720302 0.000000 0.693660
v -0.728962 0.000000 0.684554
v -0.737507 0.000000 0.675340
v -0.745935 0.000000 0.666019
v -0.754245 0.000000 0.656593
v -0.762436 0.000000 0.647063
v -0.770507 0.000000 0.637431
v -0.778457 0.000000 0.627698
v -0.786283 0.000000 0.617867
v -0.793985 0.000000 0.607937
v -0.801562 0.000000 0.597912
v -0.809012 0.000000 0.587792
v -0.816335 0.000000 0.577579
v -0.823528 0.000000 0.567276
v -0.830592 0.000000 0.556882
v -0.837524 0.000000 0.546401
v -0.844324 0.000000 0.535833
v -0.850991 0.000000 0.525181
v -0.857523 0.000000 0.514446
v -0.863920 0.000000 0.503629
v -0.870180 0.000000 0.492733
v -0.876304 0.000000 0.481759
v -0.882288 0.000000 0.470709
v -0.888134 0.000000 0.459585
v -0.893839 0.000000 0.448388
v -0.899403 0.000000 0.437121
v -0.904825 0.000000 0.425784
v -0.910104 0.000000 0.414380
v -0.915239 0.000000 0.402911
v -0.920230 0.000000 0.391378
v -0.925075 0.000000 0.379783
v -0.929775 0.000000 0.368129
v -0.934327 0.000000 0.356416
v -0.938732 0.000000 0.344647
v -0.942989 0.000000 0.332823
v -0.947097 0.000000 0.320947
v -0.951055 0.000000 0.309020
v -0.954864 0.000000 0.297045
v -0.958521 0.000000 0.285022
v -0.962027 0.000000 0.272955
v -0.965381 0.000000 0.260844
v -0.968583 0.000000 0.248692
v -0.971631 0.000000 0.236501
v -0.974526 0.000000 0.224273
v -0.977268 0.000000 0.212009
v -0.979855 0.000000 0.199712
v -0.982287 0.000000 0.187383
v -0.984564 0.000000 0.175024
v -0.986686 0.000000 0.162638
v -0.988652 0.000000 0.150226
v -0.990461 0.000000 0.137791
v -0.992115 0.000000 0.125334
v -0.993611 0.000000 0.112857
v -0.994951 0.000000 0.100362
v -0.996134 0.000000 0.087851
v -0.997159 0.000000 0.075327
v -0.998027 0.000000 0.062790
v -0.998737 0.000000 0.050244
v -0.999290 0.000000 0.037689
v -0.999684 0.000000 0.025129
v -0.999921 0.000000 0.012565
v -1.000000 0.000000 -0.000001
v -0.999921 0.000000 -0.012568
v -0.999684 0.000000 -0.025132
v -0.999289 0.000000 -0.037692
v -0.998737 0.000000 -0.050247
v -0.998027 0.000000 -0.062793
v -0.997159 0.000000 -0.075329
v -0.996133 0.000000 -0.087854
v -0.994951 0.000000 -0.100365
v -0.993611 0.000000 -0.112860
v -0.992114 0.000000 -0.125337
v -0.990461 0.000000 -0.137794
v -0.988651 0.000000 -0.150229
v -0.986685 0.000000 -0.162641
v -0.984564 0.000000 -0.175027
v -0.982286 0.000000 -0.187386
v -0.979854 0.000000 -0.199714
v -0.977267 0.000000 -0.212012
v -0.974526 0.000000 -0.224276
v -0.971631 0.000000 -0.236504
v -0.968582 0.000000 -0.248695
v -0.965380 0.000000 -0.260847
v -0.962026 0.000000 -0.272957
v -0.958520 0.000000 -0.285025
v -0.954863 0.000000 -0.297047
v -0.951055 0.000000 -0.309023
v -0.947096 0.000000 -0.320950
v -0.942988 0.000000 -0.332826
v -0.938731 0.000000 -0.344649
v -0.934326 0.000000 -0.356419
v -0.929774 0.000000 -0.368131
v -0.925074 0.000000 -0.379786
v -0.920229 0.000000 -0.391381
v -0.915238 0.000000 -0.402914
v -0.910103 0.000000 -0.414383
v -0.904824 0.000000 -0.425787
v -0.899402 0.000000 -0.437123
v -0.893838 0.000000 -0.448391
v -0.888132 0.000000 -0.459588
v -0.882287 0.000000 -0.470712
v -0.876302 0.000000 -0.481762
v -0.870179 0.000000 -0.492736
v -0.863919 0.000000 -0.503632
v -0.857522 0.000000 -0.514448
v -0.850989 0.000000 -0.525183
v -0.844322 0.000000 -0.535835
v -0.837522 0.000000 -0.546403
v -0.830590 0.000000 -0.556884
v -0.823526 0.000000 -0.567278
v -0.816333 0.000000 -0.577582
v -0.809010 0.000000 -0.587794
v -0.801560 0.000000 -0.597914
v -0.793983 0.000000 -0.607940
v -0.786281 0.000000 -0.617869
v -0.778455 0.000000 -0.627701
v -0.770505 0.000000 -0.637433
v -0.762434 0.000000 -0.647065
v -0.754243 0.000000 -0.656595
v -0.745933 0.000000 -0.666021
v -0.737504 0.000000 -0.675342
v -0.728960 0.000000 -0.684557
v -0.720300 0.000000 -0.693663
v -0.711526 0.000000 -0.702660
v -0.702640 0.000000 -0.711545
v -0.693643 0.000000 -0.720319
v -0.684537 0.000000 -0.728978
v -0.675322 0.000000 -0.737523
v -0.666001 0.000000 -0.745951
v -0.656575 0.000000 -0.754261
v -0.647045 0.000000 -0.762452
v -0.637412 0.000000 -0.770523
v -0.627679 0.000000 -0.778472
v -0.617847 0.000000 -0.786298
v -0.607918 0.000000 -0.794000
v -0.597892 0.000000 -0.801576
v -0.587772 0.000000 -0.809026
v -0.577559 0.000000 -0.816349
v -0.567255 0.000000 -0.823542
v -0.556862 0.000000 -0.830605
v -0.546380 0.000000 -0.837537
v -0.535812 0.000000 -0.844337
v -0.525160 0.000000 -0.851004
v -0.514425 0.000000 -0.857536
v -0.503608 0.000000 -0.863932
v -0.492712 0.000000 -0.870193
v -0.481738 0.000000 -0.876315
v -0.470688 0.000000 -0.882300
v -0.459563 0.000000 -0.888145
v -0.448367 0.000000 -0.893850
v -0.437099 0.000000 -0.899414
v -0.425762 0.000000 -0.904835
v -0.414358 0.000000 -0.910114
v -0.402889 0.000000 -0.915249
v -0.391356 0.000000 -0.920240
v -0.379761 0.000000 -0.925085
v -0.368106 0.000000 -0.929784
v -0.356393 0.000000 -0.934336
v -0.344624 0.000000 -0.938741
v -0.332800 0.000000 -0.942997
v -0.320924 0.000000 -0.947105
v -0.308997 0.000000 -0.951063
v -0.297021 0.000000 -0.954871
v -0.284999 0.000000 -0.958528
v -0.272931 0.000000 -0.962034
v -0.260820 0.000000 -0.965387
v -0.248669 0.000000 -0.968589
v -0.236477 0.000000 -0.971637
v -0.224249 0.000000 -0.974532
v -0.211985 0.000000 -0.977273
v -0.199688 0.000000 -0.979860
v -0.187359 0.000000 -0.982292
v -0.175000 0.000000 -0.984568
v -0.162614 0.000000 -0.986690
v -0.150202 0.000000 -0.988655
v -0.137767 0.000000 -0.990465
v -0.125309 0.000000 -0.992118
v -0.112832 0.000000 -0.993614
v -0.100337 0.000000 -0.994953
v -0.087827 0.000000 -0.996136
v -0.075302 0.000000 -0.997161
v -0.062766 0.000000 -0.998028
v -0.050219 0.000000 -0.998738
v -0.037665 0.000000 -0.999290
v -0.025105 0.000000 -0.999685
v -0.012540 0.000000 -0.999921
vn 0.0000 -1.0000 0.0000
vn 0.0000 0.0000 1.0000
usemtl None
s off
f 250//1 58//1 122//1
f 253//2 1//2 2//2
f 2//1 3//1 6//1
f 3//1 4//1 6//1
f 4//1 5//1 6//1
f 6//1 7//1 8//1
f 8//1 9//1 6//1
f 9//1 10//1 6//1
f 10//1 11//1 12//1
f 12//1 13//1 10//1
f 13//1 14//1 10//1
f 14//1 15//1 16//1
f 16//1 17//1 18//1
f 18//1 19//1 20//1
f 20//1 21//1 18//1
f 21//1 22//1 18//1
f 22//1 23//1 24//1
f 24//1 25//1 22//1
f 25//1 26//1 22//1
f 26//1 27//1 30//1
f 27//1 28//1 30//1
f 28//1 29//1 30//1
f 30//1 31//1 34//1
f 31//1 32//1 34//1
f 32//1 33//1 34//1
f 34//1 35//1 36//1
f 36//1 37//1 34//1
f 37//1 38//1 34//1
f 38//1 39//1 40//1
f 40//1 41//1 42//1
f 42//1 43//1 44//1
f 44//1 45//1 46//1
f 46//1 47//1 48//1
f 48//1 49//1 50//1
f 50//1 51//1 54//1
f 51//1 52//1 54//1
f 52//1 53//1 54//1
f 54//1 55//1 56//1
f 56//1 57//1 54//1
f 57//1 58//1 54//1
f 58//1 59//1 60//1
f 60//1 61//1 58//1
f 61//1 62//1 58//1
f 62//1 63//1 64//1
f 64//1 65//1 66//1
f 66//1 67//1 68//1
f 68//1 69//1 66//1
f 69//1 70//1 66//1
f 70//1 71//1 72//1
f 72//1 73//1 74//1
f 74//1 75//1 76//1
f 76//1 77//1 78//1
f 78//1 79//1 82//1
f 79//1 80//1 82//1
f 80//1 81//1 82//1
f 82//1 83//1 86//1
f 83//1 84//1 86//1
f 84//1 85//1 86//1
f 86//1 87//1 88//1
f 88//1 89//1 90//1
f 90//1 91//1 92//1
f 92//1 93//1 94//1
f 94//1 95//1 96//1
f 96//1 97//1 94//1
f 97//1 98//1 94//1
f 98//1 99//1 100//1
f 100//1 101//1 102//1
f 102//1 103//1 104//1
f 104//1 105//1 102//1
f 105//1 106//1 102//1
f 106//1 107//1 110//1
f 107//1 108//1 110//1
f 108//1 109//1 110//1
f 110//1 111//1 112//1
f 112//1 113//1 110//1
f 113//1 114//1 110//1
f 114//1 115//1 116//1
f 116//1 117//1 118//1
f 118//1 119//1 120//1
f 120//1 121//1 122//1
f 122//1 123//1 124//1
f 124//1 125//1 126//1
f 126//1 127//1 130//1
f 127//1 128//1 130//1
f 128//1 129//1 130//1
f 130//1 131//1 132//1
f 132//1 133//1 134//1
f 134//1 135//1 136//1
f 136//1 137//1 134//1
f 137//1 138//1 134//1
f 138//1 139//1 142//1
f 139//1 140//1 142//1
f 140//1 141//1 142//1
f 142//1 143//1 146//1
f 143//1 144//1 146//1
f 144//1 145//1 146//1
f 146//1 147//1 148//1
f 148//1 149//1 150//1
f 150//1 151//1 152//1
f 152//1 153//1 150//1
f 153//1 154//1 150//1
f 154//1 155//1 156//1
f 156//1 157//1 158//1
f 158//1 159//1 160//1
f 160//1 161//1 162//1
f 162//1 163//1 166//1
f 163//1 164//1 166//1
f 164//1 165//1 166//1
f 166//1 167//1 168//1
f 168//1 169//1 166//1
f 169//1 170//1 166//1
f 170//1 171//1 174//1
f 171//1 172//1 174//1
f 172//1 173//1 174//1
f 174//1 175//1 176//1
f 176//1 177//1 178//1
f 178//1 179//1 182//1
f 179//1 180//1 182//1
f 180//1 181//1 182//1
f 182//1 183//1 184//1
f 184//1 185//1 182//1
f 185//1 186//1 182//1
f 186//1 187//1 188//1
f 188//1 189//1 190//1
f 190//1 191//1 192//1
f 192//1 193//1 190//1
f 193//1 194//1 190//1
f 194//1 195//1 196//1
f 196//1 197//1 198//1
f 198//1 199//1 202//1
f 199//1 200//1 202//1
f 200//1 201//1 202//1
f 202//1 203//1 204//1
f 204//1 205//1 202//1
f 205//1 206//1 202//1
f 206//1 207//1 208//1
f 208//1 209//1 210//1
f 210//1 211//1 212//1
f 212//1 213//1 214//1
f 214//1 215//1 216//1
f 216//1 217//1 214//1
f 217//1 218//1 214//1
f 218//1 219//1 220//1
f 220//1 221//1 222//1
f 222//1 223//1 224//1
f 224//1 225//1 226//1
f 226//1 227//1 230//1
f 227//1 228//1 230//1
f 228//1 229//1 230//1
f 230//1 231//1 232//1
f 232//1 233//1 234//1
f 234//1 235//1 236//1
f 236//1 237//1 238//1
f 238//1 239//1 240//1
f 240//1 241//1 238//1
f 241//1 242//1 238//1
f 242//1 243//1 244//1
f 244//1 245//1 242//1
f 245//1 246//1 242//1
f 246//1 247//1 248//1
f 248//1 249//1 246//1
f 249//1 250//1 246//1
f 250//1 251//1 252//1
f 252//1 253//1 2//1
f 14//1 16//1 10//1
f 16//1 18//1 10//1
f 38//1 40//1 34//1
f 40//1 42//1 34//1
f 42//1 44//1 50//1
f 44//1 46//1 50//1
f 46//1 48//1 50//1
f 62//1 64//1 58//1
f 64//1 66//1 58//1
f 70//1 72//1 66//1
f 72//1 74//1 66//1
f 74//1 76//1 82//1
f 76//1 78//1 82//1
f 86//1 88//1 82//1
f 88//1 90//1 82//1
f 90//1 92//1 94//1
f 98//1 100//1 102//1
f 114//1 116//1 122//1
f 116//1 118//1 122//1
f 118//1 120//1 122//1
f 122//1 124//1 130//1
f 124//1 126//1 130//1
f 130//1 132//1 134//1
f 146//1 148//1 150//1
f 154//1 156//1 162//1
f 156//1 158//1 162//1
f 158//1 160//1 162//1
f 174//1 176//1 170//1
f 176//1 178//1 170//1
f 186//1 188//1 190//1
f 194//1 196//1 198//1
f 206//1 208//1 202//1
f 208//1 210//1 202//1
f 210//1 212//1 218//1
f 212//1 214//1 218//1
f 218//1 220//1 226//1
f 220//1 222//1 226//1
f 222//1 224//1 226//1
f 230//1 232//1 234//1
f 234//1 236//1 242//1
f 236//1 238//1 242//1
f 250//1 252//1 10//1
f 252//1 2//1 10//1
f 2//1 6//1 10//1
f 18//1 22//1 10//1
f 22//1 26//1 10//1
f 26//1 30//1 34//1
f 50//1 54//1 58//1
f 90//1 94//1 106//1
f 94//1 98//1 106//1
f 98//1 102//1 106//1
f 106//1 110//1 122//1
f 110//1 114//1 122//1
f 130//1 134//1 122//1
f 134//1 138//1 122//1
f 138//1 142//1 146//1
f 146//1 150//1 154//1
f 162//1 166//1 170//1
f 178//1 182//1 170//1
f 182//1 186//1 170//1
f 186//1 190//1 202//1
f 190//1 194//1 202//1
f 194//1 198//1 202//1
f 226//1 230//1 218//1
f 230//1 234//1 218//1
f 242//1 246//1 250//1
f 26//1 34//1 58//1
f 34//1 42//1 58//1
f 42//1 50//1 58//1
f 58//1 66//1 74//1
f 74//1 82//1 58//1
f 82//1 90//1 58//1
f 138//1 146//1 122//1
f 146//1 154//1 122//1
f 154//1 162//1 186//1
f 162//1 170//1 186//1
f 202//1 210//1 186//1
f 210//1 218//1 186//1
f 234//1 242//1 218//1
f 242//1 250//1 218//1
f 250//1 10//1 58//1
f 10//1 26//1 58//1
f 90//1 106//1 58//1
f 106//1 122//1 58//1
f 122//1 154//1 186//1
f 186//1 218//1 122//1
f 218//1 250//1 122//1
